<svg width="25" height="25" viewBox="0 0 25 25" fill="none" xmlns="http://www.w3.org/2000/svg">
<g id="Rectangle 299">
<path id="Vector" d="M20.5 0.5H4.5C3.43913 0.5 2.42172 0.921428 1.67157 1.67157C0.921428 2.42172 0.5 3.43913 0.5 4.5V20.5C0.5 21.5609 0.921428 22.5783 1.67157 23.3284C2.42172 24.0786 3.43913 24.5 4.5 24.5H20.5C21.5609 24.5 22.5783 24.0786 23.3284 23.3284C24.0786 22.5783 24.5 21.5609 24.5 20.5V4.5C24.5 3.43913 24.0786 2.42172 23.3284 1.67157C22.5783 0.921428 21.5609 0.5 20.5 0.5ZM18.2333 9.31333L12.14 17.3133C12.0158 17.4747 11.8563 17.6054 11.6737 17.6956C11.4911 17.7857 11.2903 17.8328 11.0867 17.8333C10.8841 17.8344 10.684 17.7894 10.5015 17.7016C10.319 17.6138 10.1589 17.4856 10.0333 17.3267L6.78 13.18C6.67232 13.0417 6.59293 12.8835 6.54638 12.7145C6.49983 12.5455 6.48702 12.369 6.50869 12.195C6.53035 12.0211 6.58607 11.8531 6.67266 11.7006C6.75925 11.5482 6.87501 11.4144 7.01333 11.3067C7.2927 11.0892 7.64701 10.9916 7.99833 11.0354C8.17228 11.057 8.34026 11.1127 8.49269 11.1993C8.64511 11.2859 8.77898 11.4017 8.88667 11.54L11.06 14.3133L16.1 7.64667C16.2068 7.50659 16.3402 7.38892 16.4924 7.30038C16.6447 7.21184 16.813 7.15416 16.9875 7.13064C17.1621 7.10712 17.3396 7.11821 17.5099 7.16328C17.6802 7.20835 17.8399 7.28653 17.98 7.39333C18.1201 7.50014 18.2377 7.6335 18.3263 7.78578C18.4148 7.93806 18.4725 8.10629 18.496 8.28087C18.5196 8.45544 18.5085 8.63294 18.4634 8.80323C18.4183 8.97352 18.3401 9.13326 18.2333 9.27333V9.31333Z" fill="#2858FD" fill-opacity="0.8"/>
</g>
</svg>
